# xmcd
#
# Track frame offsets: 
#        150
#        18355
#        31410
#        49725
#        68295
#        83555
#        100955
#        123945
#        140542
#        155987
#        170022
#        183212
#        197792
#
# Disc length: 2984 seconds
#
# Revision: 14
# Processed by: cddbd v1.5.2PL0 Copyright (c) Steve Scherf et al.
# Submitted via: ExactAudioCopy v1.3
#
DISCID=a80ba60d
DTITLE=Alan Jackson - Drive
DYEAR=2002
DGENRE=Country
TTITLE0=Drive (For Daddy Gene)
TTITLE1=A Little Bluer Than That
TTITLE2=Bring On The Night
TTITLE3=Work In Progress
TTITLE4=The Sounds
TTITLE5=Designated Drinker (A duet with George Strait)
TTITLE6=Where Were You (When The World Stopped Turning)
TTITLE7=That'd Be Alright
TTITLE8=Once In A Lifetime Love
TTITLE9=When Love Comes Around
TTITLE10=I Slipped And Fell In Love
TTITLE11=First Love
TTITLE12=Where Were You (When The World Stopped Turning) - Live Perfor
TTITLE12=mance From The 35th Annual CMA Awards
EXTD=YEAR: 2002 ID3G: 2
EXTT0=
EXTT1=
EXTT2=
EXTT3=
EXTT4=
EXTT5=
EXTT6=
EXTT7=
EXTT8=
EXTT9=
EXTT10=
EXTT11=
EXTT12=
PLAYORDER=
